
<svg width="162px" height="60px" viewBox="0 0 162 60" version="1.1" xmlns="http://www.w3.org/2000/svg" xmlns:xlink="http://www.w3.org/1999/xlink">
    <defs>
        <polygon id="path-1" points="0.0795 0.1610625 26.5658316 0.1610625 26.5658316 18.9624375 0.0795 18.9624375"></polygon>
        <polygon id="path-3" points="0.13281614 0.114 26.06116 0.114 26.06116 35.068425 0.13281614 35.068425"></polygon>
        <path d="M89.8214172,14.3698167 C89.8214172,14.1420338 90.003334,13.9372807 90.2535662,13.9372807 L99.6749162,13.9372807 C99.9251485,13.9372807 100.107065,14.1420338 100.107065,14.3698167 L100.107065,16.8500768 C100.107065,17.0778597 99.9251485,17.2826128 99.6749162,17.2826128 L93.3713089,17.2826128 L93.3713089,20.104257 L98.559612,20.104257 C98.7872014,20.104257 98.9919545,20.3090101 98.9919545,20.536793 L98.9919545,23.0170531 C98.9919545,23.2674789 98.7872014,23.4495891 98.559612,23.4495891 L93.3713089,23.4495891 L93.3713089,26.5214656 L99.6749162,26.5214656 C99.9251485,26.5214656 100.107065,26.7264121 100.107065,26.953808 L100.107065,29.4340681 C100.107065,29.6618511 99.9251485,29.8666041 99.6749162,29.8666041 L90.2535662,29.8666041 C90.003334,29.8666041 89.8214172,29.6618511 89.8214172,29.4340681 L89.8214172,14.3698167 Z M80.4213553,13.7094978 C82.6970559,13.7094978 84.3809466,14.4151023 85.9282062,15.826118 C86.1329593,16.0082282 86.1329593,16.2812968 85.950849,16.463407 L84.1761935,18.3065716 C84.0167261,18.4658455 83.7663004,18.4658455 83.60722,18.3065716 C82.7651779,17.5556814 81.6500672,17.1457882 80.53515,17.1457882 C77.963738,17.1457882 76.0750943,19.2850512 76.0750943,21.8338204 C76.0750943,24.3597532 77.9865744,26.4529565 80.5577928,26.4529565 C81.6274244,26.4529565 82.7880142,26.0662867 83.60722,25.3606821 C83.7663004,25.2242446 84.0623988,25.2242446 84.1988364,25.383712 L85.9738789,27.2725493 C86.1329593,27.4316297 86.1103165,27.7273411 85.950849,27.886615 C84.4035894,29.3887825 82.4468237,30.094 80.4213553,30.094 C75.8701477,30.094 72.2062678,26.4759864 72.2062678,21.9247788 C72.2062678,17.3735711 75.8701477,13.7094978 80.4213553,13.7094978 L80.4213553,13.7094978 Z M54.6137613,14.1193909 C54.6137613,13.891608 54.8185143,13.7094978 55.0461037,13.7094978 L55.6150773,13.7094978 L64.6946561,22.4478861 L64.717299,22.4478861 L64.717299,14.3698167 C64.717299,14.1420338 64.8994092,13.9372807 65.149835,13.9372807 L67.8805208,13.9372807 C68.1081102,13.9372807 68.3130568,14.1420338 68.3130568,14.3698167 L68.3130568,29.6844939 C68.3130568,29.9118898 68.1081102,30.094 67.8805208,30.094 L67.5164939,30.094 C67.4481784,30.094 67.2660681,30.025878 67.2207825,29.9802053 L58.2319684,20.9461056 L58.2093256,20.9461056 L58.2093256,29.4340681 C58.2093256,29.6618511 58.0272154,29.8666041 57.7767896,29.8666041 L55.0687466,29.8666041 C54.8413507,29.8666041 54.6365976,29.6618511 54.6365976,29.4340681 L54.6137613,14.1193909 Z M40.1618337,14.3698167 C40.1618337,14.1420338 40.3437504,13.9372807 40.5939827,13.9372807 L50.0151392,13.9372807 C50.2653714,13.9372807 50.4474817,14.1420338 50.4474817,14.3698167 L50.4474817,16.8500768 C50.4474817,17.0778597 50.2653714,17.2826128 50.0151392,17.2826128 L43.7117253,17.2826128 L43.7117253,20.104257 L48.9000285,20.104257 C49.1276179,20.104257 49.332371,20.3090101 49.332371,20.536793 L49.332371,23.0170531 C49.332371,23.2674789 49.1276179,23.4495891 48.9000285,23.4495891 L43.7117253,23.4495891 L43.7117253,26.5214656 L50.0151392,26.5214656 C50.2653714,26.5214656 50.4474817,26.7264121 50.4474817,26.953808 L50.4474817,29.4340681 C50.4474817,29.6618511 50.2653714,29.8666041 50.0151392,29.8666041 L40.5939827,29.8666041 C40.3437504,29.8666041 40.1618337,29.6618511 40.1618337,29.4340681 L40.1618337,14.3698167 Z M31.5136297,14.3698167 C31.5136297,14.1420338 31.7185763,13.9372807 31.9459721,13.9372807 L34.676658,13.9372807 C34.9044409,13.9372807 35.109194,14.1420338 35.109194,14.3698167 L35.109194,29.4340681 C35.109194,29.6618511 34.9044409,29.8666041 34.676658,29.8666041 L31.9459721,29.8666041 C31.7185763,29.8666041 31.5136297,29.6618511 31.5136297,29.4340681 L31.5136297,14.3698167 Z M22.1139548,13.7094978 C24.3894618,13.7094978 26.0735461,14.4151023 27.6208057,15.826118 C27.8257523,16.0082282 27.8257523,16.2812968 27.643642,16.463407 L25.8684059,18.3065716 C25.7093256,18.4658455 25.4590934,18.4658455 25.2998195,18.3065716 C24.4577774,17.5556814 23.3426667,17.1457882 22.227556,17.1457882 C19.656144,17.1457882 17.7673067,19.2850512 17.7673067,21.8338204 C17.7673067,24.3597532 19.6789803,26.4529565 22.2503923,26.4529565 C23.3198303,26.4529565 24.4806137,26.0662867 25.2998195,25.3606821 C25.4590934,25.2242446 25.7548048,25.2242446 25.8914358,25.383712 L27.6664784,27.2725493 C27.8257523,27.4316297 27.8029159,27.7273411 27.643642,27.886615 C26.0961889,29.3887825 24.1390361,30.094 22.1139548,30.094 C17.5627472,30.094 13.8990608,26.4759864 13.8990608,21.9247788 C13.8990608,17.3735711 17.5627472,13.7094978 22.1139548,13.7094978 L22.1139548,13.7094978 Z M0.539601177,27.7046983 L1.6092327,25.816248 C1.79134293,25.5201496 2.22349187,25.5658223 2.38276575,25.6794234 C2.47372411,25.7247091 4.11232915,26.9311652 5.61430314,26.9311652 C6.52446725,26.9311652 7.18439913,26.3623852 7.18439913,25.5658223 C7.18439913,24.6097919 6.3878362,23.8815445 4.84038303,23.2674789 C2.88361728,22.4935588 0.426,20.9689419 0.426,18.2380625 C0.426,15.9855854 2.1780127,13.7094978 5.68242514,13.7094978 C8.04908407,13.7094978 9.86960582,14.9159539 10.5521805,15.4164183 C10.8254426,15.5756922 10.7797699,15.9855854 10.6888116,16.1444722 L9.52822171,17.8966784 C9.36894782,18.1471042 8.95924818,18.3522443 8.75449512,18.1927769 C8.54974207,18.0787887 6.88868772,16.827434 5.50031491,16.827434 C4.68110915,16.827434 4.06684998,17.3735711 4.06684998,17.9880238 C4.06684998,18.8298724 4.74942468,19.4671615 6.54730361,20.1954089 C8.32215266,20.9008199 11.1439904,22.2888057 11.1439904,25.383712 C11.1439904,27.7273411 9.11852206,30.094 5.77357702,30.094 C2.81510822,30.094 1.17689023,28.8652881 0.653202353,28.3417938 C0.426,28.1143979 0.357490943,28.0234395 0.539601177,27.7046983 L0.539601177,27.7046983 Z M96.3481629,4.85034773 C97.2314265,4.85034773 98.0057337,4.10274748 98.0057337,3.16510234 C98.0057337,2.28183867 97.2314265,1.548366 96.3481629,1.548366 L93.9296383,1.548366 L93.9296383,4.85034773 L96.3481629,4.85034773 Z M92.5027534,0.4884109 C92.5027534,0.352360427 92.6115163,0.230050472 92.7609203,0.230050472 L96.4571194,0.230050472 C98.0874027,0.230050472 99.4190717,1.5210785 99.4190717,3.13781483 C99.4190717,4.38820189 98.590383,5.42086948 97.4083115,5.89656232 L99.2698613,9.34794798 C99.3646902,9.52444589 99.2698613,9.74197182 99.0387884,9.74197182 L97.9788333,9.74197182 C97.8700703,9.74197182 97.7885948,9.67384982 97.7615009,9.6198554 L95.954139,6.01867874 L93.9023508,6.01867874 L93.9023508,9.48361139 C93.9023508,9.6198554 93.7800409,9.74197182 93.6439904,9.74197182 L92.7609203,9.74197182 C92.6115163,9.74197182 92.5027534,9.6198554 92.5027534,9.48361139 L92.5027534,0.4884109 Z M82.9507716,8.51925933 C84.8939904,8.51925933 86.4838263,6.9427769 86.4838263,4.99975166 C86.4838263,3.07007989 84.8939904,1.45295649 82.9507716,1.45295649 C81.0212934,1.45295649 79.4314575,3.07007989 79.4314575,4.99975166 C79.4314575,6.9427769 81.0212934,8.51925933 82.9507716,8.51925933 L82.9507716,8.51925933 Z M82.9507716,0.094 C85.6684911,0.094 87.8425893,2.28183867 87.8425893,4.99975166 C87.8425893,7.7172776 85.6684911,9.87782877 82.9507716,9.87782877 C80.2332457,9.87782877 78.0726945,7.7172776 78.0726945,4.99975166 C78.0726945,2.28183867 80.2332457,0.094 82.9507716,0.094 L82.9507716,0.094 Z M68.3573748,0.4884109 C68.3573748,0.352360427 68.4661378,0.230050472 68.6153482,0.230050472 L74.0507871,0.230050472 C74.2003846,0.230050472 74.308954,0.352360427 74.308954,0.4884109 L74.308954,1.24917108 C74.308954,1.38502802 74.2003846,1.50753151 74.0507871,1.50753151 L69.7569723,1.50753151 L69.7569723,4.64617526 L73.3850494,4.64617526 C73.5209063,4.64617526 73.6432163,4.76867874 73.6432163,4.90434216 L73.6432163,5.65194241 C73.6432163,5.78760582 73.5209063,5.9101093 73.3850494,5.9101093 L69.7569723,5.9101093 L69.7569723,9.48361139 C69.7569723,9.6198554 69.6346623,9.74197182 69.4986119,9.74197182 L68.6153482,9.74197182 C68.4661378,9.74197182 68.3573748,9.6198554 68.3573748,9.48361139 L68.3573748,0.4884109 Z M51.9366828,0.4884109 C51.9366828,0.352360427 52.0589927,0.230050472 52.1946561,0.230050472 L53.0916603,0.230050472 C53.2410643,0.230050472 53.3498272,0.352360427 53.3498272,0.4884109 L53.3498272,4.27943892 L58.3231203,4.27943892 L58.3231203,0.4884109 C58.3231203,0.352360427 58.4318833,0.230050472 58.5814807,0.230050472 L59.4782914,0.230050472 C59.6141483,0.230050472 59.7362647,0.352360427 59.7362647,0.4884109 L59.7362647,9.48361139 C59.7362647,9.6198554 59.6141483,9.74197182 59.4782914,9.74197182 L58.5814807,9.74197182 C58.4318833,9.74197182 58.3231203,9.6198554 58.3231203,9.48361139 L58.3231203,5.5565329 L53.3498272,5.5565329 L53.3498272,9.48361139 C53.3498272,9.6198554 53.2410643,9.74197182 53.0916603,9.74197182 L52.1946561,9.74197182 C52.0589927,9.74197182 51.9366828,9.6198554 51.9366828,9.48361139 L51.9366828,0.4884109 Z M43.9743434,0.094 C45.3466534,0.094 46.33868,0.556145843 47.2627781,1.35812757 C47.3850881,1.46669701 47.3850881,1.62964793 47.2763251,1.7384109 L46.6783223,2.34996068 C46.5832999,2.4720771 46.4609899,2.4720771 46.33868,2.34996068 C45.7000362,1.79298591 44.8303196,1.43940951 43.9878904,1.43940951 C42.0448651,1.43940951 40.5771457,3.07007989 40.5771457,4.97246416 C40.5771457,6.8746549 42.0584121,8.49177829 44.0016309,8.49177829 C44.993464,8.49177829 45.6864892,8.09794798 46.33868,7.59496764 C46.4609899,7.49975166 46.5832999,7.51329865 46.6647754,7.58142065 L47.2898721,8.19297043 C47.3986351,8.28818641 47.3715411,8.46468432 47.2763251,8.55970677 C46.352227,9.45651742 45.1837024,9.87782877 43.9743434,9.87782877 C41.2566239,9.87782877 39.0689788,7.7172776 39.0689788,4.99975166 C39.0689788,2.28183867 41.2566239,0.094 43.9743434,0.094 L43.9743434,0.094 Z M31.8540461,4.85034773 C32.7373098,4.85034773 33.5118105,4.10274748 33.5118105,3.16510234 C33.5118105,2.28183867 32.7373098,1.548366 31.8540461,1.548366 L29.4353281,1.548366 L29.4353281,4.85034773 L31.8540461,4.85034773 Z M28.0086366,0.4884109 C28.0086366,0.352360427 28.1172061,0.230050472 28.26661,0.230050472 L31.9626156,0.230050472 C33.5934795,0.230050472 34.9249549,1.5210785 34.9249549,3.13781483 C34.9249549,4.38820189 34.0960728,5.42086948 32.9140012,5.89656232 L34.775551,9.34794798 C34.870767,9.52444589 34.775551,9.74197182 34.5446716,9.74197182 L33.484523,9.74197182 C33.3759536,9.74197182 33.2944781,9.67384982 33.2671906,9.6198554 L31.4600223,6.01867874 L29.4082341,6.01867874 L29.4082341,9.48361139 C29.4082341,9.6198554 29.2857306,9.74197182 29.1498737,9.74197182 L28.26661,9.74197182 C28.1172061,9.74197182 28.0086366,9.6198554 28.0086366,9.48361139 L28.0086366,0.4884109 Z M21.1741808,6.50791856 L19.502676,2.78462548 L19.4347475,2.78462548 L17.7769831,6.50791856 L21.1741808,6.50791856 Z M15.0186227,9.38878247 L19.1901276,0.243790989 C19.2309621,0.162122 19.353272,0.094 19.4212005,0.094 L19.5570574,0.094 C19.6249859,0.094 19.7472959,0.162122 19.7881304,0.243790989 L23.9327348,9.38878247 C24.0140167,9.56528038 23.9054473,9.74197182 23.7016619,9.74197182 L22.8454922,9.74197182 C22.6825413,9.74197182 22.5873253,9.66030283 22.5329438,9.53818641 L21.6905146,7.6764431 L17.2471023,7.6764431 C16.9753885,8.3017334 16.689934,8.91308964 16.4182202,9.53818641 C16.3773857,9.63340238 16.2686227,9.74197182 16.1056718,9.74197182 L15.2496956,9.74197182 C15.0457167,9.74197182 14.9369537,9.56528038 15.0186227,9.38878247 L15.0186227,9.38878247 Z M2.80330299,0.297978944 C2.83059049,0.189409506 2.93935346,0.094 3.0479229,0.094 L3.26544883,0.094 C3.34692429,0.094 3.46923425,0.162122 3.49632822,0.243790989 L6.33635764,7.18739681 L6.3905456,7.18739681 L9.21702802,0.243790989 C9.24431553,0.162122 9.3530785,0.094 9.44810094,0.094 L9.66543335,0.094 C9.77419632,0.094 9.88295928,0.189409506 9.91024679,0.297978944 L11.5815581,9.42922991 C11.6221991,9.6198554 11.5271767,9.74197182 11.3369382,9.74197182 L10.4536746,9.74197182 C10.3313646,9.74197182 10.2226016,9.64675584 10.1955077,9.5517334 L9.18993405,3.47784425 L9.14909955,3.47784425 L6.70309398,9.72842483 C6.67619353,9.80990029 6.59471807,9.87782877 6.47221458,9.87782877 L6.2277882,9.87782877 C6.11902524,9.87782877 6.02380926,9.80990029 5.99671528,9.72842483 L3.53716272,3.47784425 L3.48278124,3.47784425 L2.50449512,9.5517334 C2.49075461,9.64675584 2.36844465,9.74197182 2.25987521,9.74197182 L1.37661155,9.74197182 C1.18637312,9.74197182 1.09135067,9.6198554 1.11844465,9.42922991 L2.80330299,0.297978944 Z" id="path-5"></path>
    </defs>
    <g id="Flow" stroke="none" stroke-width="1" fill="none" fill-rule="evenodd">
        <g id="LandingPage-Desktop-1440+" transform="translate(-193.000000, -32.000000)">
            <g id="Header" transform="translate(120.000000, 8.000000)">
                <g id="Logo/Logo-Square" transform="translate(72.000000, 24.000000)">
                    <g id="Icon" transform="translate(1.000000, 0.000000)">
                        <path d="M26.1872442,24.9495187 C26.2015635,24.9422062 26.2156968,24.9350812 26.2300161,24.9279562 C26.2445214,24.9206437 26.2588407,24.9133312 26.27316,24.9054562 C26.5201214,24.8289562 26.7451389,24.6776437 26.9947039,24.5223937 C27.0157179,24.5096437 27.0346863,24.4950187 27.0499354,24.4770187 C27.0649986,24.4592062 27.0765284,24.4382062 27.0828512,24.4128937 C27.1598407,24.1406437 27.0287354,24.0684562 26.8409109,24.0393937 C26.8172933,24.0358312 26.7929319,24.0330187 26.7680126,24.0303937 C26.4870196,23.9925187 26.2528898,24.0210187 25.976174,24.0564562 C25.9564618,24.0588937 25.9345179,24.0605812 25.9105284,24.0613312 C25.5372968,24.0740812 24.6768372,23.9043937 24.5697214,24.3373312 C24.5392232,24.4601437 24.6945039,24.4918312 24.7701916,24.5426437 C24.9226828,24.6446437 25.0407705,24.8195812 24.9637811,25.0037062 C24.8934863,25.1720812 24.7778161,25.2598312 24.9773565,25.3995187 C25.2107425,25.5632062 25.3656512,25.3772062 25.5438056,25.2418312 C25.7195425,25.1081437 25.9220582,25.0278937 26.1348021,24.9759562 C26.1520968,24.9673312 26.1695775,24.9583312 26.1872442,24.9495187" id="Fill-1" fill="#025280"></path>
                        <path d="M29.9831786,29.330325 C29.7765716,29.2266375 29.6475119,29.1115125 29.5720102,28.8887625 C29.4756804,28.604325 29.3588944,28.4020125 29.1349926,28.19745 C29.0327119,28.1037 28.9295014,27.9955125 28.793747,27.9537 C28.6036909,27.8950125 28.3957821,27.93495 28.200147,27.8742 C27.9662032,27.8016375 27.7501119,27.681075 27.5256523,27.5847 C27.4973856,27.5725125 27.4685611,27.5612625 27.4391786,27.55095 C27.2191821,27.4737 26.9711049,27.45345 26.7812347,27.6177 C26.5054488,27.8562 26.181126,28.1862 26.0743821,28.5437625 C26.0544839,28.6105125 26.0171049,28.6671375 25.9931154,28.731825 C25.9079435,28.9783875 25.9352804,29.197575 26.0503926,29.3751375 C26.196933,29.601825 26.2240839,29.8450125 26.4996839,29.9571375 C26.5179084,29.9646375 26.5368768,29.971575 26.5562172,29.9777625 C26.8671505,30.097575 27.1570698,29.9110125 27.4655856,29.960325 C27.4869716,29.9672625 27.5068698,29.9772 27.5250944,29.9893875 C27.6349996,30.0625125 27.6898593,30.222075 27.7010172,30.3987 C27.7090137,30.4142625 27.7168242,30.4300125 27.7248207,30.4457625 C27.7841435,30.563325 27.8436523,30.681075 27.8882839,30.769575 C28.0718312,31.132575 27.8492312,31.3491375 27.8142698,31.7001375 C27.8124102,31.7200125 27.8122242,31.7397 27.8140839,31.7593875 C27.8176172,31.7833875 27.8213365,31.807575 27.8250558,31.83195 C27.8680137,32.121075 27.9892628,32.3567625 28.1172067,32.6155125 C28.2209751,32.8258875 28.3054032,33.066075 28.5850944,33.0400125 C28.6066663,33.0392625 28.6291681,33.0366375 28.6520418,33.03195 C28.698347,33.0223875 28.7472558,33.0042 28.798954,32.97645 C28.8225716,32.9697 28.8458172,32.9616375 28.8685049,32.9518875 C29.1208593,32.84595 29.2772558,32.5960125 29.3581505,32.3428875 C29.3973891,32.2202625 29.3994347,32.0886375 29.4388593,31.9675125 C29.4859084,31.824075 29.6017646,31.7158875 29.6687119,31.582575 C29.7181786,31.4841375 29.74254,31.3827 29.7486768,31.272825 C29.7624382,31.0311375 29.7047891,30.7892625 29.8102312,30.5597625 C29.9205084,30.3192 30.1622628,30.1667625 30.2509681,29.912325 C30.3432067,29.64795 30.2173084,29.4475125 29.9831786,29.330325" id="Fill-3" fill="#025280"></path>
                        <path d="M30.4310193,35.2117687 C30.422093,35.2102687 30.4131667,35.2098937 30.4042404,35.2074562 C30.3172088,35.1842062 30.2365,35.0475187 30.1416579,35.0548312 C29.8649421,35.0758312 29.637507,35.2196437 29.3721351,35.2920187 C28.8488298,35.4343312 28.2779175,35.2952062 27.7462439,35.3763937 C27.5825947,35.3923312 27.4425632,35.4275812 27.2673842,35.4478312 C26.817907,35.5365187 26.4238474,35.7105187 26.0591702,35.9910187 C26.0418754,36.0028312 26.0240228,36.0125812 26.0052404,36.0206437 C25.8732053,36.0767062 25.6957947,36.0455812 25.5557632,35.9707687 C25.4374895,35.9077687 25.2018719,35.9272687 25.0729982,35.9261437 C24.9225526,35.9244562 24.5483912,36.1213312 24.650114,35.8104562 C24.6564368,35.7909562 24.6644333,35.7710812 24.6728018,35.7510187 C24.7466298,35.5732687 24.7222684,35.4294562 24.5850263,35.2867687 C24.3365772,35.0289562 24.1775772,35.2620187 24.0206228,35.4388312 C23.8301947,35.6531437 23.6674754,35.5762687 23.4510123,35.5185187 C23.3226965,35.4843937 23.2025632,35.4296437 23.0682965,35.4583312 C23.0333351,35.4658312 23.0002333,35.5087687 22.9675035,35.5226437 C21.2398895,34.3700812 20.0999246,32.3945812 20.0999246,30.1494563 C20.0999246,29.4843937 20.1999737,28.8429562 20.3855667,28.2393937 C20.4233175,28.2920812 20.4612544,28.3445812 20.5090474,28.3895812 C20.6027737,28.4778937 20.7158404,28.5416437 20.8246298,28.6083937 C21.0606193,28.7537062 21.3064649,28.8851437 21.5335281,29.0441437 C21.7109386,29.1684562 21.8416719,29.3343937 22.0017877,29.4699562 C22.0192684,29.4847687 22.0365632,29.4986437 22.0540439,29.5115812 C22.1063,29.5507687 22.1581842,29.5826437 22.2093246,29.6109562 C22.2335,29.6190187 22.2606509,29.6278312 22.2879877,29.6366437 C22.5042649,29.7067688 22.3664649,29.8134562 22.2675316,29.9576437 C22.2587912,29.9702062 22.2500509,29.9829562 22.2413105,29.9958937 C22.2143456,30.0347062 22.1901702,30.0755812 22.1695281,30.1175812 C22.0917947,30.2762062 22.2511667,30.5368312 22.2943105,30.6960187 C22.3514018,30.9063937 22.4036579,31.1235187 22.5581947,31.2860812 C22.5712123,31.2997687 22.5855316,31.3130812 22.6011526,31.3254562 C22.6171456,31.3378312 22.6346263,31.3496437 22.6541526,31.3601437 C22.673493,31.3710187 22.6950649,31.3805812 22.7190544,31.3892062 C22.7324439,31.3944562 22.7460193,31.3995187 22.7599667,31.4047687 C23.0205035,31.5032062 23.1073491,31.5118312 23.1136719,31.7972062 C23.1177632,31.9740187 23.1004684,32.1508312 23.1054895,32.3274562 C23.1062333,32.5715812 23.3107947,32.7774563 23.3425947,33.0189562 C23.3611912,33.1618312 23.3424088,33.3084562 23.3812754,33.4488937 C23.3875982,33.4713937 23.3948509,33.4935187 23.4013596,33.5147062 C23.4852298,33.7888312 23.5077316,34.1040187 23.7950474,34.2639562 C23.855114,34.2975187 24.1450333,34.4413312 24.1742298,34.3233937 C24.178693,34.3055812 24.1818544,34.2873937 24.1816684,34.2678937 C24.1812965,34.1308312 24.0533526,33.9542062 23.9676228,33.8559562 C23.8785456,33.7533938 23.7762649,33.6487687 23.9291281,33.5460188 C24.0341982,33.4755187 24.2091912,33.4400812 24.2380158,33.3165187 C24.2437807,33.2932687 24.2450825,33.2668312 24.2408053,33.2370187 C24.2404333,33.2207062 24.2398754,33.2047687 24.2395035,33.1888312 C24.2385737,33.1573312 24.2376439,33.1265812 24.2369,33.0971438 C24.2363421,33.0804562 24.2357842,33.0639562 24.2354123,33.0480187 C24.242107,32.9182687 24.263493,32.7864562 24.3449456,32.6773312 C24.3585211,32.6591437 24.3737702,32.6415187 24.3908789,32.6240813 C24.4712158,32.5202063 24.5411386,32.4277687 24.6287281,32.3477062 C24.6432333,32.3343937 24.6582965,32.3212688 24.6741035,32.3083312 C24.8399842,32.1684562 25.0501246,32.0625187 25.1390158,31.8183937 C25.1455246,31.7987062 25.1505456,31.7799562 25.1557526,31.7613937 C25.1862509,31.6492687 25.222514,31.5382687 25.2582193,31.4274562 C25.2647281,31.4068312 25.2727246,31.3865812 25.2818368,31.3665187 C25.3365105,31.2461437 25.429493,31.1342062 25.4728228,31.0140187 C25.4782158,30.9988312 25.4836088,30.9840187 25.4890018,30.9693937 C25.5407,30.7905187 25.6108088,30.6140812 25.4553421,30.4899562 C25.434886,30.4785187 25.4129421,30.4665187 25.3896965,30.4539562 C25.2107982,30.3557062 25.0067947,30.3453937 24.8278965,30.2533312 C24.687493,30.1807687 24.613107,30.0502687 24.4920439,29.9595187 C24.4743772,29.9462062 24.4580123,29.9338312 24.4420193,29.9210812 C24.3614965,29.8578937 24.2861807,29.7905812 24.2227667,29.7088312 C24.2117947,29.6988937 24.2006368,29.6891437 24.1894789,29.6795812 C24.1111877,29.6117062 24.0304789,29.5413937 23.9579526,29.4785812 C23.9441912,29.4665812 23.9306158,29.4549562 23.9174123,29.4442687 C23.7537632,29.3070187 23.5785842,29.2715812 23.3695596,29.2657687 L23.3264158,29.2657687 L22.7112439,29.2657687 C22.6242123,29.2657687 22.3737175,29.3158312 22.3069561,29.2605187 C22.2506088,29.2138312 22.2870579,29.0949562 22.2762719,29.0282062 C22.2584193,28.9192687 22.0776614,28.7771437 22.090493,28.6833937 C22.1070439,28.5648937 22.212114,28.4591437 22.1420053,28.3884562 C21.9668263,28.2823312 21.8267947,28.4943938 21.7565,28.6003312 C21.6865772,28.6357687 21.581507,28.5650812 21.5262754,28.5245812 C21.5143737,28.5062062 21.5041456,28.4855812 21.4961491,28.4636437 C21.4721596,28.3974562 21.4680684,28.3179562 21.4946614,28.2476437 C21.4985667,28.2217687 21.5043316,28.1960812 21.5121421,28.1713312 C21.6058684,27.8687062 21.9984404,27.8718938 22.2560018,27.8098312 C22.3426614,27.7890188 22.4919912,27.7835812 22.5682368,27.7348312 C22.5686088,27.7346437 23.0119491,27.4522688 23.0119491,27.4522688 C23.1597912,27.3581437 23.2914544,27.1470187 23.4089842,27.0180187 C23.5579421,26.8545187 23.7357246,26.5269563 23.9585105,26.4710813 C23.9802684,26.4656438 24.0025842,26.4622687 24.0254579,26.4605812 C24.0507491,26.4626437 24.0765982,26.4641437 24.1020754,26.4648937 C24.2488018,26.4690187 24.5350018,26.3218312 24.6051105,26.1870187 C24.6668509,26.0679562 24.5443,25.8723938 24.4730754,25.7818312 C24.363914,25.6423312 24.1852018,25.5973312 24.0684158,25.4700188 C24.0544684,25.4550188 24.0399632,25.4418937 24.0241561,25.4310187 C23.7608298,25.2527062 23.5298614,26.0195812 23.2044228,25.9796437 C23.0660649,25.9625812 22.949093,25.8311437 22.912086,25.7017687 C22.8423491,25.4574562 23.0662509,25.2695812 23.0422614,25.0277063 C23.0335211,24.9388312 23.0030228,24.8570813 22.9608088,24.7807688 C23.9711561,24.1048313 25.1829035,23.7103312 26.4865175,23.7103312 C27.9915316,23.7103312 29.3738088,24.2364562 30.4656088,25.1145187 C30.2495175,25.2455813 30.0077632,25.2830812 29.7570825,25.2783937 C29.2138789,25.2682687 28.5462649,24.9892687 28.0558754,25.3318312 C27.7058895,25.5763312 27.1558053,26.2080187 27.3806368,26.6703937 C27.5199246,26.9570812 27.8753035,27.1040812 28.1460684,27.2276437 C28.4542123,27.3684563 28.7725842,27.4929562 29.0520895,27.6888937 C29.1831947,27.7807687 29.3087211,27.8675812 29.3933351,28.0080187 C29.4714404,28.1370187 29.5114228,28.2862687 29.5811596,28.4197687 C29.6992474,28.6457062 29.9145947,28.9618312 30.1790368,29.0229562 C30.332086,29.0583937 30.5230719,28.9929562 30.6513877,28.9080187 C30.8721281,28.7619562 31.0954719,28.4675812 31.3669807,28.4212687 C31.6442544,28.3742062 31.7599246,28.7173312 31.8350544,28.9235812 C31.8964228,29.0921437 31.9734123,29.5719562 32.1878298,29.6229563 C32.4197281,29.6778937 32.6321,29.2050187 32.7107632,29.0546437 C32.7278719,29.0218312 32.7444228,28.9875187 32.7613456,28.9537687 C32.8335,29.3413312 32.8729246,29.7407062 32.8729246,30.1494563 C32.8729246,32.2042687 31.9174368,34.0327687 30.4310193,35.2117687 M26.4865175,22.6695188 C22.450893,22.6695188 19.1795842,25.9680187 19.1795842,30.0367688 C19.1795842,34.1055188 22.450893,37.4038313 26.4865175,37.4038313 C30.5217702,37.4038313 33.7932649,34.1055188 33.7932649,30.0367688 C33.7932649,25.9680187 30.5217702,22.6695188 26.4865175,22.6695188" id="Fill-5" fill="#025280"></path>
                        <path d="M20.9684179,39.6671812 C19.1314565,38.5978688 17.385246,37.4636813 15.7494986,36.2895563 C15.0366951,35.7782438 14.3447196,35.2592438 13.6756179,34.7346187 C11.7122004,33.1959937 9.94441789,31.6099313 8.4100214,30.0287438 C7.94808456,29.5524938 7.50641789,29.0768063 7.08799684,28.6029937 C2.7713793,23.7128063 0.841063509,19.0200562 2.5201407,16.0875563 C3.65210912,14.1109312 6.29206702,13.1659313 9.83953368,13.1659313 C11.3134916,13.1659313 12.9457056,13.3311187 14.6904284,13.6511812 C14.6965653,13.6286812 14.7021442,13.6052437 14.708467,13.5827438 C14.878067,12.9692437 15.0632881,12.3555563 15.2578074,11.7553687 C8.32856877,10.4672437 2.90415825,11.5149938 0.844596842,15.1121813 C-1.30032246,18.8578687 0.751614386,24.4073063 5.74700386,30.0469312 C6.16914421,30.5235562 6.61136877,31.0007437 7.0749793,31.4775562 C9.01366351,33.4723688 11.3080986,35.4600562 13.9013793,37.3656187 C14.5959582,37.8759937 15.3117372,38.3807438 16.0483442,38.8779938 C17.3080705,39.7281188 18.6271196,40.5570563 20.0010284,41.3567437 C21.3775407,42.1579313 22.7512635,42.8959313 24.1140144,43.5718688 C24.8989723,43.2497438 25.6908109,42.9053062 26.4863688,42.5387437 C24.6577758,41.6964938 22.8079828,40.7379938 20.9684179,39.6671812" id="Fill-7" fill="#33BFBD"></path>
                        <g id="Group-11" transform="translate(26.407018, 29.886000)">
                            <mask id="mask-2" fill="white">
                                <use xlink:href="#path-1"></use>
                            </mask>
                            <g id="Clip-10"></g>
                            <path d="M22.6243982,2.361375 C22.0700368,1.6269375 21.4665807,0.8923125 20.8188649,0.1610625 C20.3967246,0.6375 19.954314,1.1146875 19.4908895,1.5916875 C20.060314,2.2408125 20.5934754,2.892 21.0846088,3.5428125 C24.3365772,7.8515625 25.4135,11.699625 24.0390333,14.0998125 C22.3614439,17.0293125 17.3731211,17.6915625 11.0224193,16.3723125 C10.3983211,16.2425625 9.7604614,16.0929375 9.11181579,15.9253125 C6.99107193,15.3770625 4.74982281,14.628 2.45185439,13.6858125 C1.65666842,14.0803125 0.865201754,14.4530625 0.0795,14.80425 C3.00974912,16.1139375 5.86059123,17.1211875 8.54108947,17.8160625 C9.18843333,17.983875 9.82573509,18.1335 10.4518789,18.26475 C12.6555632,18.7265625 14.7203316,18.9624375 16.5874193,18.9624375 C20.9345351,18.9624375 24.215514,17.6934375 25.7147632,15.075375 C27.5245737,11.914875 26.4268228,7.3996875 22.6243982,2.361375" id="Fill-9" fill="#33BFBD" mask="url(#mask-2)"></path>
                        </g>
                        <path d="M26.4864432,17.5386 C28.3129905,18.3801 30.160366,19.336725 31.9976993,20.406225 C33.4843028,21.271725 34.9167905,22.1809125 36.2858642,23.122725 C36.2211484,22.5157875 36.1484361,21.9131625 36.0675414,21.323475 C36.03258,21.067725 35.995387,20.8140375 35.9572642,20.5611 C34.9861554,19.9279125 33.9877098,19.311975 32.9652747,18.71685 C31.5915519,17.9171625 30.2202467,17.1799125 28.8602853,16.5051 C28.0643554,16.110225 27.2727028,15.7376625 26.4864432,15.3861 C23.8596888,14.2116 21.2967204,13.2801 18.8629975,12.598725 C18.8577905,12.61485 18.8522116,12.6306 18.8468186,12.646725 C18.6549028,13.2300375 18.4678221,13.8499125 18.2904116,14.4891 C20.1604747,15.0116625 22.1151519,15.685725 24.1126011,16.5051 C24.8983028,16.8274125 25.6903274,17.1716625 26.4864432,17.5386" id="Fill-12" fill="#33BFBD"></path>
                        <path d="M40.2060789,26.0541937 C41.7955211,27.3479437 43.2577632,28.6795687 44.5628649,30.0286312 C45.0248018,29.5525687 45.4664684,29.0768812 45.8847035,28.6028812 C44.1611807,26.8293187 42.1845596,25.0872562 40.0102579,23.4226312 C40.0677211,24.0372562 40.1201632,24.6545062 40.1607035,25.2693187 C40.1779982,25.5295687 40.1915737,25.7920687 40.2060789,26.0541937" id="Fill-14" fill="#33BFBD"></path>
                        <path d="M34.5843596,14.517375 C34.4365175,14.0008125 34.2830965,13.4983125 34.1259561,13.021125 C34.0826263,12.8893125 34.0383667,12.7603125 33.994293,12.63075 C31.5951596,13.3093125 29.0714298,14.2303125 26.4865175,15.3860625 C27.2727772,15.737625 28.0644298,16.110375 28.8601737,16.50525 C30.8230333,15.6999375 32.7440509,15.0361875 34.5843596,14.517375" id="Fill-16" fill="#025280"></path>
                        <path d="M52.1283453,15.1120875 C50.0570681,11.4948375 44.5835628,10.4545875 37.5981628,11.7764625 C37.6258716,11.8593375 37.6545102,11.940525 37.681847,12.02415 C37.8583277,12.5639625 38.0243944,13.11615 38.1811628,13.669275 C39.9643804,13.3368375 41.6308119,13.166025 43.1332225,13.166025 C46.6808751,13.166025 49.320833,14.1108375 50.4526154,16.08765 C52.1318786,19.0199625 50.2015628,23.7127125 45.8847593,28.6029 C45.4665242,29.0769 45.0246716,29.5525875 44.5627347,30.02865 C43.0285242,31.610025 41.2607418,33.1959 39.2973242,34.7347125 C38.6280365,35.25915 37.936247,35.77815 37.2234435,36.28965 C35.5875102,37.4635875 33.8414856,38.597775 32.0043382,39.6670875 C30.1649593,40.7379 28.3151663,41.6965875 26.4863874,42.53865 C25.6906435,42.9052125 24.8989909,43.2498375 24.113847,43.571775 C21.8158786,44.51415 19.5748154,45.263025 17.4538856,45.811275 C16.805426,45.9790875 16.1675663,46.128525 15.5434681,46.258275 C9.19276632,47.577525 4.20444351,46.9154625 2.52685404,43.9859625 C1.15238737,41.5855875 2.22931018,37.737525 5.4812786,33.428775 C5.97241193,32.7779625 6.50557333,32.126775 7.07481193,31.47765 C6.61138737,31.00065 6.16916281,30.5234625 5.74702246,30.047025 C5.09930667,30.778275 4.49585053,31.5129 3.94148912,32.2473375 C0.139064561,37.28565 -0.958686316,41.8008375 0.851124211,44.9613375 C2.35037333,47.5795875 5.63135228,48.8484 9.97846807,48.8484 C11.8455558,48.8484 13.9103242,48.612525 16.1138225,48.1509 C16.7401523,48.0194625 17.377454,47.8698375 18.0247979,47.702025 C20.7051102,47.00715 23.5559523,45.9999 26.4863874,44.6902125 C27.2722751,44.339025 28.0635558,43.966275 28.8589277,43.571775 C30.2214926,42.8958375 31.5954014,42.158025 32.9719137,41.35665 C34.3458225,40.5569625 35.6648716,39.7282125 36.9245979,38.8779 C37.6612049,38.3808375 38.3767979,37.8760875 39.0715628,37.365525 C41.6646575,35.4599625 43.9590926,33.472275 45.8979628,31.47765 C46.3613874,31.00065 46.8036119,30.5234625 47.2257523,30.047025 C52.2213277,24.4072125 54.2730786,18.857775 52.1283453,15.1120875" id="Fill-18" fill="#025280"></path>
                        <path d="M12.7696154,26.0661 C12.7850505,25.8041625 12.7999277,25.541475 12.8181523,25.2814125 C12.8614821,24.6667875 12.9165277,24.0499125 12.9767804,23.4352875 C10.795226,25.0905375 8.81135228,26.823975 7.08020491,28.590225 C7.49639439,29.0659125 7.93601544,29.543475 8.39590667,30.0216 C9.70677333,28.67835 11.1745944,27.3529125 12.7696154,26.0661" id="Fill-20" fill="#025280"></path>
                        <path d="M26.4864432,17.5386 C25.6903274,17.1716625 24.8983028,16.8274125 24.1126011,16.5051 C22.7526396,17.1799125 21.3813344,17.9171625 20.0076116,18.71685 C18.9851765,19.311975 17.9869168,19.9279125 17.0156221,20.5611 C16.9774993,20.8147875 16.9401204,21.0690375 16.9053449,21.323475 C16.8486256,21.7371 16.7952537,22.1599125 16.7467168,22.580475 C16.7260747,22.759725 16.7063625,22.9410375 16.6870221,23.122725 C18.0559098,22.1809125 19.4885835,21.271725 20.975187,20.406225 C22.8125204,19.336725 24.6598958,18.3801 26.4864432,17.5386" id="Fill-22" fill="#025280"></path>
                        <path d="M16.2202316,40.0367812 C16.0015368,39.8927812 15.7820982,39.7491562 15.5663789,39.6036563 C15.0534877,39.2575312 14.5415263,38.9005313 14.0364456,38.5388437 C14.3406842,40.9814062 14.7739825,43.2855937 15.3188596,45.4125937 C15.3355965,45.4092188 15.3519614,45.4064063 15.3685123,45.4028438 C15.9662035,45.2787187 16.5923474,45.1322812 17.2298351,44.9676563 C16.8318702,43.4166563 16.4922982,41.7662812 16.2202316,40.0367812" id="Fill-24" fill="#F16145"></path>
                        <path d="M34.6638039,48.5296687 C32.6273021,54.2636062 29.6905442,57.9350437 26.4863688,57.9350437 C23.2821933,57.9350437 20.3454354,54.2636062 18.3091196,48.5296687 C18.286246,48.5356687 18.2633723,48.5418562 18.2406846,48.5478563 C17.6197477,48.7089188 17.0006705,48.8544188 16.3975863,48.9826688 C18.7559933,55.6749188 22.3678039,59.8859813 26.4863688,59.8859813 C30.6051196,59.8859813 34.2169302,55.6749188 36.5751512,48.9826688 C35.972253,48.8544188 35.3531758,48.7089188 34.7322389,48.5478563 C34.7095512,48.5418562 34.6866775,48.5356687 34.6638039,48.5296687" id="Fill-26" fill="#F16145"></path>
                        <g id="Group-30" transform="translate(13.389474, 0.073500)">
                            <mask id="mask-4" fill="white">
                                <use xlink:href="#path-3"></use>
                            </mask>
                            <g id="Clip-29"></g>
                            <path d="M2.36048982,23.7048 C2.40177404,23.2681125 2.44733544,22.835175 2.49680211,22.4059875 C2.54645474,21.9768 2.60001263,21.55155 2.65766175,21.1306125 C2.74264772,20.51055 2.83600211,19.8998625 2.93772491,19.2991125 C3.02940561,18.757425 3.12871088,18.2251125 3.23359509,17.7004875 C3.30314596,17.3524875 3.37437053,17.0071125 3.44950035,16.667175 C3.5748407,16.0988625 3.70799158,15.5419875 3.84820912,14.9974875 C3.91850386,14.7252375 3.99047228,14.4559875 4.06411439,14.1901125 C4.19931088,13.702425 4.34008632,13.22505 4.48681263,12.759675 C4.53553544,12.6046125 4.58500211,12.4508625 4.63521263,12.298425 C4.89054246,11.5223625 5.1616793,10.7806125 5.44750737,10.07655 C5.87615649,9.0203625 6.33734947,8.048925 6.82662316,7.174425 C6.98971439,6.8828625 7.15596702,6.602175 7.32500912,6.3327375 C7.49405123,6.0633 7.66625474,5.804925 7.84087579,5.5583625 C8.01568281,5.3116125 8.1932793,5.076675 8.37329333,4.853925 C8.82351439,4.2968625 9.28972842,3.8157375 9.76933193,3.4173 C9.96106175,3.257925 10.1550232,3.111675 10.3508442,2.9793 C11.2323179,2.383425 12.1530302,2.0648625 13.0969881,2.0648625 C16.4530968,2.0648625 19.5166828,6.0912375 21.5585775,12.298425 C21.7592337,12.908175 21.9494758,13.5398625 22.1298618,14.1901125 C22.2035039,14.4559875 22.2754723,14.7252375 22.3455811,14.9974875 C22.7664196,16.6309875 23.1225425,18.37605 23.4024196,20.2077375 C23.4492828,20.5129875 23.4939144,20.820675 23.5363144,21.1306125 C23.5939635,21.55155 23.6475214,21.9768 23.6969881,22.4059875 C23.7466407,22.835175 23.7922021,23.2681125 23.8334863,23.7048 C24.0246582,25.724175 24.1261951,27.82005 24.1261951,29.963175 C24.1261951,31.701675 24.0583179,33.407925 23.9311179,35.068425 C24.4226232,34.7067375 24.9068758,34.3396125 25.3762512,33.9717375 C25.5780232,33.813675 25.7768196,33.6544875 25.9748723,33.494925 C26.0317775,32.3386125 26.06116,31.1603625 26.06116,29.963175 C26.06116,28.35705 26.008346,26.7848625 25.9069951,25.253925 C25.8777986,24.8118 25.8445109,24.3732375 25.8071319,23.9386125 C25.769753,23.5036125 25.7284688,23.07255 25.6832793,22.6452375 C25.4709074,20.635425 25.1726196,18.7113 24.7973425,16.8942375 C24.5721389,15.8041125 24.3194126,14.7522375 24.0406512,13.7438625 C23.8610091,13.0939875 23.6702091,12.4628625 23.4697389,11.849925 C21.1232337,4.6752375 17.3842232,0.113925 13.0969881,0.113925 C8.80975298,0.113925 5.07074246,4.6752375 2.72423719,11.849925 C2.52358105,12.4628625 2.33296702,13.0939875 2.15332491,13.7438625 C1.96754596,14.41605 1.79311088,15.1077375 1.63094947,15.81705 C1.54968281,16.1718 1.47157754,16.5308625 1.39644772,16.8942375 C1.28393895,17.4393 1.17831088,17.9941125 1.07974947,18.557925 C0.948458246,19.3098 0.829998596,20.077425 0.724742456,20.86005 C0.645893333,21.446925 0.574482807,22.0422375 0.510696842,22.6452375 C0.420317895,23.4998625 0.345374035,24.369675 0.286795088,25.253925 C0.185630175,26.7848625 0.13281614,28.35705 0.13281614,29.963175 C0.13281614,31.1603625 0.162198596,32.3386125 0.21910386,33.494925 C0.416970526,33.6543 0.615952982,33.813675 0.817724912,33.9717375 C1.28691439,34.339425 1.77135298,34.7067375 2.26285825,35.068425 C2.13565825,33.407925 2.06759509,31.701675 2.06759509,29.963175 C2.06759509,27.82005 2.16931789,25.724175 2.36048982,23.7048" id="Fill-28" fill="#F16145" mask="url(#mask-4)"></path>
                        </g>
                        <path d="M36.7526547,40.0367812 C36.4805881,41.7659063 36.141946,43.4174062 35.7437951,44.9678438 C36.3807249,45.1322812 37.0066828,45.2787187 37.604374,45.4028438 C37.6209249,45.4064063 37.6371039,45.4092188 37.6538407,45.4125937 C38.1987179,43.2859688 38.6312723,40.9814062 38.9355109,38.5394062 C38.4308021,38.9010938 37.9190267,39.2577188 37.4063214,39.6036563 C37.1907881,39.7491562 36.9713495,39.8927812 36.7526547,40.0367812" id="Fill-31" fill="#F16145"></path>
                        <path d="M23.9789109,4.083 C23.9789109,5.48475 22.8519635,6.621 21.4616898,6.621 C20.0714161,6.621 18.9444688,5.48475 18.9444688,4.083 C18.9444688,2.68125 20.0714161,1.545 21.4616898,1.545 C22.8519635,1.545 23.9789109,2.68125 23.9789109,4.083" id="Fill-33" fill="#F16145"></path>
                        <path d="M52.1851947,34.5694313 C52.1851947,36.0913688 50.9615456,37.3251188 49.4520684,37.3251188 C47.9425912,37.3251188 46.7187561,36.0913688 46.7187561,34.5694313 C46.7187561,33.0474938 47.9425912,31.8135563 49.4520684,31.8135563 C50.9615456,31.8135563 52.1851947,33.0474938 52.1851947,34.5694313" id="Fill-35" fill="#33BFBD"></path>
                        <path d="M12.7701733,47.7475313 C12.7701733,49.2694688 11.5465242,50.5032188 10.037047,50.5032188 C8.52756982,50.5032188 7.30373474,49.2694688 7.30373474,47.7475313 C7.30373474,46.2255938 8.52756982,44.9918438 10.037047,44.9918438 C11.5465242,44.9918438 12.7701733,46.2255938 12.7701733,47.7475313" id="Fill-37" fill="#025280"></path>
                    </g>
                    <g id="MARCHFORSCIENCE-2" transform="translate(62.000000, 19.000000)">
                        <mask id="mask-6" fill="white">
                            <use xlink:href="#path-5"></use>
                        </mask>
                        <use id="Fill-1" fill="#025280" xlink:href="#path-5"></use>
                        <g id="Colors/Accent1" mask="url(#mask-6)" fill="#005280">
                            <g transform="translate(-0.574000, -1.906000)" id="Rectangle-Copy">
                                <rect x="0" y="0" width="101" height="34"></rect>
                            </g>
                        </g>
                    </g>
                </g>
            </g>
        </g>
    </g>
</svg>